HIERARCHY
ROOT joint_Root
{
	OFFSET 0.0 0.0 0.0
	CHANNELS 6 Xposition Yposition Zposition Zrotation Xrotation Yrotation 
	JOINT Hips
	{
		OFFSET 4.5925 91.4895 -427.239
		CHANNELS 6 Xposition Yposition Zposition Zrotation Xrotation Yrotation 
		JOINT Spine
		{
			OFFSET 15.7357 0.0 0.0
			CHANNELS 6 Xposition Yposition Zposition Zrotation Xrotation Yrotation 
			JOINT Chest
			{
				OFFSET 8.98455 -0.406207 0.0
				CHANNELS 6 Xposition Yposition Zposition Zrotation Xrotation Yrotation 
				JOINT Neck
				{
					OFFSET 16.3773 0.0 0.0
					CHANNELS 6 Xposition Yposition Zposition Zrotation Xrotation Yrotation 
					JOINT Head
					{
						OFFSET 6.45672 0.0 0.0
						CHANNELS 6 Xposition Yposition Zposition Zrotation Xrotation Yrotation 
						End Site
						{
							OFFSET 0.0 0.0 0.0
						}
					}
				}
				JOINT Shoulder_L
				{
					OFFSET 12.9942 -0.242716 4.98039
					CHANNELS 6 Xposition Yposition Zposition Zrotation Xrotation Yrotation 
					JOINT UpperArm_L
					{
						OFFSET 5.34809 0.0 0.0
						CHANNELS 6 Xposition Yposition Zposition Zrotation Xrotation Yrotation 
						JOINT LowerArm_L
						{
							OFFSET 24.3286 1.87007e-05 0.0
							CHANNELS 6 Xposition Yposition Zposition Zrotation Xrotation Yrotation 
							JOINT Hand_L
							{
								OFFSET 22.2916 0.0 0.0
								CHANNELS 6 Xposition Yposition Zposition Zrotation Xrotation Yrotation 
								End Site
								{
									OFFSET 0.0 0.0 0.0
								}
							}
						}
					}
				}
				JOINT Shoulder_R
				{
					OFFSET 12.9945 -0.242716 -4.98039
					CHANNELS 6 Xposition Yposition Zposition Zrotation Xrotation Yrotation 
					JOINT UpperArm_R
					{
						OFFSET -5.34813 0.0 0.0
						CHANNELS 6 Xposition Yposition Zposition Zrotation Xrotation Yrotation 
						JOINT LowerArm_R
						{
							OFFSET -24.3289 0.000322201 0.0
							CHANNELS 6 Xposition Yposition Zposition Zrotation Xrotation Yrotation 
							JOINT Hand_R
							{
								OFFSET -22.2915 -0.000108084 0.0
								CHANNELS 6 Xposition Yposition Zposition Zrotation Xrotation Yrotation 
								End Site
								{
									OFFSET 0.0 0.0 0.0
								}
							}
						}
					}
				}
			}
		}
		JOINT UpperLeg_L
		{
			OFFSET -2.19248 -6.46944 0.0
			CHANNELS 6 Xposition Yposition Zposition Zrotation Xrotation Yrotation 
			JOINT LowerLeg_L
			{
				OFFSET 39.0811 0.0 -1.23785e-05
				CHANNELS 6 Xposition Yposition Zposition Zrotation Xrotation Yrotation 
				JOINT Foot_L
				{
					OFFSET 40.9854 0.0 -1.26872e-05
					CHANNELS 6 Xposition Yposition Zposition Zrotation Xrotation Yrotation 
					JOINT Toes_L
					{
						OFFSET 11.7543 0.0 0.0
						CHANNELS 6 Xposition Yposition Zposition Zrotation Xrotation Yrotation 
						End Site
						{
							OFFSET 0.0 0.0 0.0
						}
					}
				}
			}
		}
		JOINT UpperLeg_R
		{
			OFFSET -2.19251 6.46944 0.0
			CHANNELS 6 Xposition Yposition Zposition Zrotation Xrotation Yrotation 
			JOINT LowerLeg_R
			{
				OFFSET -39.0811 -0.00228153 -0.0401928
				CHANNELS 6 Xposition Yposition Zposition Zrotation Xrotation Yrotation 
				JOINT Foot_R
				{
					OFFSET -40.9854 0.0 0.0
					CHANNELS 6 Xposition Yposition Zposition Zrotation Xrotation Yrotation 
					JOINT Toes_R
					{
						OFFSET -11.7543 0.0 0.0
						CHANNELS 6 Xposition Yposition Zposition Zrotation Xrotation Yrotation 
						End Site
						{
							OFFSET 0.0 0.0 0.0
						}
					}
				}
			}
		}
	}
}
MOTION
Frames:	4
Frame Time:	0.0333333
0.000000 0.000000 0.000000 0.000000 0.000000 -0.000000 0.430737 84.120300 -0.020092 91.423800 -8.429880 11.121500 15.735700 0.000005 -0.000001 88.426200 81.363700 -88.338700 8.984550 -0.406207 -0.000000 9.500740 -0.470328 0.214025 16.377300 -0.000001 -0.000001 0.278665 -2.493570 0.658834 6.456720 -0.000001 -0.000000 2.021490 -2.559180 4.653320 12.994200 -0.242716 4.980390 -91.809800 6.332970 -74.014700 5.348090 -0.000007 -0.000001 -70.748500 17.707600 -8.288350 24.328600 0.000019 0.000005 8.744200 14.340300 -31.837200 22.291600 -0.000001 0.000005 13.883300 5.373130 -2.086080 12.994500 -0.242716 -4.980390 88.219600 9.798570 -79.648800 -5.348130 -0.000001 -0.000004 -59.996900 33.985700 -11.477900 -24.328900 0.000322 -0.000009 1.880470 3.852070 -26.066600 -22.291500 -0.000108 -0.000004 19.770700 5.449290 -4.625520 -2.192480 -6.469440 -0.000000 -175.365000 -18.106000 -9.823840 39.081100 -0.000007 -0.000012 -0.420177 0.289327 55.450300 40.985400 -0.000006 -0.000013 2.053540 5.217870 -84.017900 11.754300 -0.000000 0.000003 -0.000625 -0.004794 -16.751200 -2.192510 6.469440 -0.000001 173.052000 11.047900 167.557000 -39.081100 -0.002282 -0.040193 0.054951 -0.033110 57.381500 -40.985400 0.000008 0.000006 7.099620 8.172080 -84.042500 -11.754300 -0.000006 -0.000006 -0.810684 -1.002260 -16.788300
0.000000 0.000000 0.000000 0.000000 0.000000 -0.000000 0.519427 85.567800 0.720258 92.048200 -8.881220 11.823400 15.735700 0.000005 -0.000001 88.482700 81.714600 -87.779100 8.984550 -0.406207 -0.000000 8.802090 -0.430208 1.438930 16.377300 -0.000001 -0.000001 2.573490 -2.456300 0.114708 6.456720 -0.000001 -0.000000 3.648650 -2.340140 3.084870 12.994200 -0.242716 4.980390 -91.581300 5.168110 -72.959300 5.348090 -0.000007 -0.000001 -66.356300 14.346900 -14.264400 24.328600 0.000019 0.000005 12.925300 16.616300 -38.741700 22.291600 -0.000001 0.000005 14.106400 5.390610 -2.633720 12.994500 -0.242716 -4.980390 88.101800 9.496700 -78.641700 -5.348130 -0.000001 -0.000004 -61.878600 31.081600 -9.435800 -24.328900 0.000322 -0.000009 1.089510 2.479270 -23.724600 -22.291500 -0.000108 -0.000004 20.466800 5.412920 -3.362010 -2.192480 -6.469440 -0.000000 -176.114000 -17.398200 -6.103080 39.081100 -0.000007 -0.000012 -0.391790 0.325557 50.276100 40.985400 -0.000006 -0.000013 1.367250 4.217250 -81.990000 11.754300 -0.000000 0.000003 -0.000605 -0.004665 -16.746700 -2.192510 6.469440 -0.000001 171.938000 11.173800 170.888000 -39.081100 -0.002282 -0.040193 0.044929 -0.031522 52.908700 -40.985400 0.000008 0.000006 7.013470 9.309490 -82.311400 -11.754300 -0.000006 -0.000006 -0.756859 -0.933341 -16.886400
0.000000 0.000000 0.000000 0.000000 0.000000 -0.000000 0.346959 87.388500 1.204800 92.014700 -8.250370 11.486100 15.735700 0.000005 -0.000001 86.835900 82.522300 -85.295500 8.984550 -0.406207 -0.000000 7.180260 -0.830372 3.129630 16.377300 -0.000001 -0.000001 5.535520 -2.842710 -0.232308 6.456720 -0.000001 -0.000000 5.092560 -2.376430 1.053920 12.994200 -0.242716 4.980390 -91.088100 3.400700 -72.242700 5.348090 -0.000007 -0.000001 -60.294500 7.589410 -23.535700 24.328600 0.000019 0.000005 14.569800 14.954700 -45.217300 22.291600 -0.000001 0.000005 13.607200 5.402100 -3.006010 12.994500 -0.242716 -4.980390 87.980000 8.948870 -77.224100 -5.348130 -0.000001 -0.000004 -62.698500 30.163700 -7.410870 -24.328900 0.000322 -0.000009 -0.259700 -0.650762 -21.696100 -22.291500 -0.000108 -0.000004 19.688400 5.430900 -3.973690 -2.192480 -6.469440 -0.000000 -176.465000 -16.082000 -2.965530 39.081100 -0.000007 -0.000012 -0.343336 0.360552 43.599600 40.985400 -0.000006 -0.000013 0.749016 3.673820 -78.866900 11.754300 -0.000000 0.000003 -0.000460 -0.003715 -16.713800 -2.192510 6.469440 -0.000001 171.979000 11.792900 174.199000 -39.081100 -0.002282 -0.040193 0.037071 -0.032002 46.575200 -40.985400 0.000008 0.000006 6.718530 9.557120 -79.522400 -11.754300 -0.000006 -0.000006 -0.652336 -0.802090 -16.999900
0.000000 0.000000 0.000000 0.000000 0.000000 -0.000000 -0.099436 88.962700 1.446120 91.631600 -7.178960 10.623900 15.735700 0.000005 -0.000001 82.892400 83.394700 -80.620800 8.984550 -0.406207 -0.000000 5.382220 -1.678090 4.617160 16.377300 -0.000001 -0.000001 8.016950 -3.192100 -0.183794 6.456720 -0.000001 -0.000000 6.190860 -2.459740 -0.292274 12.994200 -0.242716 4.980390 -90.481500 1.517010 -72.397500 5.348090 -0.000007 -0.000001 -52.221600 -2.588420 -33.890500 24.328600 0.000019 0.000005 11.572000 9.281350 -51.797200 22.291600 -0.000001 0.000005 14.931400 5.391150 -2.655080 12.994500 -0.242716 -4.980390 87.896000 8.480950 -76.011700 -5.348130 -0.000001 -0.000004 -62.834900 29.681000 -5.146140 -24.328900 0.000322 -0.000009 0.224662 0.571794 -21.508200 -22.291500 -0.000108 -0.000004 17.485300 5.441390 -4.332760 -2.192480 -6.469440 -0.000000 -175.817000 -16.212800 -0.505479 39.081100 -0.000007 -0.000012 -0.257218 0.338620 37.221000 40.985400 -0.000006 -0.000013 0.684174 5.186820 -75.673600 11.754300 -0.000000 0.000003 -0.000285 -0.002492 -16.670500 -2.192510 6.469440 -0.000001 172.730000 12.679000 176.987000 -39.081100 -0.002282 -0.040193 0.029448 -0.030998 40.172500 -40.985400 0.000008 0.000006 6.338250 9.372450 -76.705900 -11.754300 -0.000006 -0.000006 -0.439370 -0.540047 -17.045100
